<svg width="26px" height="19px" viewBox="0 0 26 19" version="1.1" xmlns="http://www.w3.org/2000/svg" xmlns:xlink="http://www.w3.org/1999/xlink">
  <path d="M3.375,18 L0,18 L0,0.45 L10.75,0.45 L10.75,3.3 L3.375,3.3 L3.375,7.675 L9.2,7.675 L9.2,10.525 L3.375,10.525 L3.375,18 Z M25.35,1.525 L24.275,4.35 C23.225,3.775 21.575,3.15 20.325,3.15 C18.65,3.15 17.425,3.9 17.425,5.075 C17.425,6.3 18.85,7.025 20.775,7.75 C24.85,9.35 26.025,11.225 25.95,13.4 C25.875,16.55 23.05,18.375 19.6,18.35 C17.05,18.325 14.85,17.25 13.725,16.35 L15,13.75 C15.975,14.475 17.675,15.35 19.375,15.35 C20.925,15.35 22.575,14.75 22.575,13.45 C22.575,12 20.575,11.35 18.475,10.425 C15.75,9.175 14.025,7.65 14.025,5.075 C14.025,2.575 16.15,0.1 20.025,0.1 C22.075,0.1 24.425,1.05 25.35,1.525 Z" fill="currentColor"></path>
</svg>
