<svg width="180px" height="18px" viewBox="0 0 180 18" version="1.1" xmlns="http://www.w3.org/2000/svg" xmlns:xlink="http://www.w3.org/1999/xlink">
    <g id="Page-1" stroke="none" stroke-width="1" fill="none" fill-rule="evenodd">
        <g id="logo-docs" transform="translate(-1.000000, -6.000000)">
            <path d="M123.785,23 L123.785,8.321 C133.487,6.851 135.776,12.206 135.776,15.65 C135.776,18.968 133.34,24.323 123.785,23 Z M126.011,10.19 L126.011,21.089 C129.728,21.488 133.403,19.724 133.403,15.629 C133.403,12.206 130.82,9.602 126.011,10.19 Z M137.54,15.65 C137.54,11.366 140.795,7.964 145.268,7.964 C149.741,7.964 153.017,11.366 153.017,15.65 C153.017,19.913 149.741,23.294 145.268,23.294 C140.795,23.294 137.54,19.913 137.54,15.65 Z M139.913,15.65 C139.913,19.052 142.37,21.32 145.268,21.32 C148.145,21.32 150.644,19.052 150.644,15.65 C150.644,12.248 148.145,9.917 145.268,9.917 C142.37,9.917 139.913,12.248 139.913,15.65 Z M166.94,19.577 L168.284,21.026 C167.276,22.013 165.638,23.294 162.467,23.294 C158.12,23.294 154.802,19.955 154.802,15.608 C154.802,10.988 158.477,7.964 162.572,7.964 C165.491,7.964 167.192,9.245 168.179,10.127 L166.856,11.702 C166.016,10.925 164.525,9.917 162.614,9.917 C159.569,9.917 157.196,12.416 157.196,15.608 C157.196,18.695 159.401,21.32 162.635,21.32 C164.378,21.32 166.058,20.438 166.94,19.577 Z M179.498,9.098 L178.784,10.946 C177.902,10.463 176.537,9.938 175.424,9.938 C173.744,9.938 172.673,10.799 172.673,11.954 C172.673,13.235 174.017,13.949 175.76,14.6 C178.952,15.839 180.107,17.33 180.065,19.262 C180.002,21.845 177.692,23.315 174.962,23.294 C172.82,23.273 171.14,22.475 170.216,21.719 L171.098,20.018 C171.917,20.627 173.303,21.362 174.836,21.362 C176.453,21.362 177.86,20.543 177.86,19.304 C177.86,17.855 176.327,17.246 174.311,16.364 C171.917,15.314 170.447,14.117 170.447,11.954 C170.447,10.022 172.022,7.964 175.235,7.964 C176.789,7.964 178.637,8.636 179.498,9.098 Z" id="Shape" fill="#576ADA" fill-rule="nonzero"></path>
            <path d="M13.487,10.58 L10.635,11.454 C10.5276661,10.8713304 10.2363357,10.3423357 9.761,9.867 C9.28566429,9.39166429 8.5880046,9.154 7.668,9.154 C6.91666291,9.154 6.30333571,9.35716464 5.828,9.7635 C5.35266429,10.1698354 5.115,10.6566638 5.115,11.224 C5.115,12.2206716 5.70532743,12.8339989 6.886,13.064 L9.163,13.501 C10.6043405,13.7770014 11.7236627,14.3519956 12.521,15.226 C13.3183373,16.1000044 13.717,17.1273274 13.717,18.308 C13.717,19.6573401 13.184172,20.8341616 12.1185,21.8385 C11.052828,22.8428384 9.62300897,23.345 7.829,23.345 C6.80166153,23.345 5.87400414,23.1916682 5.046,22.885 C4.21799586,22.5783318 3.55100253,22.1681692 3.045,21.6545 C2.53899747,21.1408308 2.14416809,20.5965029 1.8605,20.0215 C1.57683192,19.4464971 1.40433364,18.8523364 1.343,18.239 L4.287,17.457 C4.36366705,18.3310044 4.70483031,19.0593304 5.3105,19.642 C5.9161697,20.2246696 6.76332789,20.516 7.852,20.516 C8.68000414,20.516 9.327831,20.3320018 9.7955,19.964 C10.263169,19.5959982 10.497,19.113003 10.497,18.515 C10.497,18.0396643 10.3245017,17.6295017 9.9795,17.2845 C9.63449828,16.9394983 9.14766981,16.7056673 8.519,16.583 L6.242,16.123 C4.92332674,15.8469986 3.8806705,15.3026707 3.114,14.49 C2.3473295,13.6773293 1.964,12.6653394 1.964,11.454 C1.964,10.0126595 2.51982778,8.80133824 3.6315,7.82 C4.74317223,6.83866176 6.08099218,6.348 7.645,6.348 C8.58033801,6.348 9.41599632,6.47833203 10.152,6.739 C10.8880037,6.99966797 11.4783311,7.34849782 11.923,7.7855 C12.3676689,8.22250219 12.7126654,8.6709977 12.958,9.131 C13.2033346,9.5910023 13.3796661,10.0739975 13.487,10.58 Z M22.605,14.122 L25.112,14.122 C25.8940039,14.122 26.5149977,13.9111688 26.975,13.4895 C27.4350023,13.0678312 27.665,12.5043369 27.665,11.799 C27.665,11.0783297 27.4388356,10.5071688 26.9865,10.0855 C26.5341644,9.66383122 25.9093373,9.453 25.112,9.453 L22.605,9.453 L22.605,14.122 Z M25.503,16.859 L22.582,16.859 L22.582,23 L19.408,23 L19.408,6.693 L25.503,6.693 C27.0976746,6.693 28.3894951,7.16832858 29.3785,8.119 C30.3675049,9.06967142 30.862,10.2886592 30.862,11.776 C30.862,13.2633408 30.3675049,14.4823286 29.3785,15.433 C28.3894951,16.3836714 27.0976746,16.859 25.503,16.859 Z M46.098,23 L44.741,19.274 L38.117,19.274 L36.76,23 L33.402,23 L39.658,6.693 L43.338,6.693 L49.548,23 L46.098,23 Z M41.429,10.212 L39.175,16.376 L43.683,16.376 L41.429,10.212 Z M61.242,23.345 C58.8959883,23.345 56.918008,22.5630078 55.308,20.999 C53.697992,19.4349922 52.893,17.3880127 52.893,14.858 C52.893,12.3433208 53.7094918,10.2963412 55.3425,8.717 C56.9755082,7.13765877 58.9266553,6.348 61.196,6.348 C63.2813438,6.348 64.9564937,6.87699471 66.2215,7.935 C67.4865063,8.99300529 68.3029982,10.2656592 68.671,11.753 L65.681,12.696 C65.4509989,11.7759954 64.9680037,10.9978365 64.232,10.3615 C63.4959963,9.72516348 62.4840064,9.407 61.196,9.407 C59.8619933,9.407 58.6928384,9.88232858 57.6885,10.833 C56.6841616,11.7836714 56.182,13.1253247 56.182,14.858 C56.182,16.5140083 56.6764951,17.8249952 57.6655,18.791 C58.6545049,19.7570048 59.8466597,20.24 61.242,20.24 C62.514673,20.24 63.5304962,19.9103366 64.2895,19.251 C65.0485038,18.5916634 65.558332,17.8096712 65.819,16.905 L68.786,17.802 C68.6173325,18.4613366 68.3451685,19.1053302 67.9695,19.734 C67.5938315,20.3626698 67.107003,20.9529972 66.509,21.505 C65.910997,22.0570028 65.1558379,22.501665 64.2435,22.839 C63.3311621,23.176335 62.3306721,23.345 61.242,23.345 Z M77.651,23 L74.431,23 L74.431,6.693 L77.651,6.693 L77.651,23 Z M95.44,23 L94.083,19.274 L87.459,19.274 L86.102,23 L82.744,23 L89,6.693 L92.68,6.693 L98.89,23 L95.44,23 Z M90.771,10.212 L88.517,16.376 L93.025,16.376 L90.771,10.212 Z M114.425,23 L103.983,23 L103.983,6.693 L107.157,6.693 L107.157,19.964 L114.425,19.964 L114.425,23 Z" id="SPACIAL" fill="#000000"></path>
        </g>
    </g>
</svg>