<svg width="119px" height="19px" viewBox="0 0 119 19" version="1.1" xmlns="http://www.w3.org/2000/svg" xmlns:xlink="http://www.w3.org/1999/xlink">
    <g id="Page-1" stroke="none" stroke-width="1" fill="none" fill-rule="evenodd">
        <path d="M12.9429567,5.04 L9.96695674,5.952 C9.85495618,5.34399696 9.55095922,4.79200248 9.05495674,4.296 C8.55895426,3.79999752 7.83096154,3.552 6.87095674,3.552 C6.08695282,3.552 5.44695922,3.76399788 4.95095674,4.188 C4.45495426,4.61200212 4.20695674,5.11999704 4.20695674,5.712 C4.20695674,6.7520052 4.82295058,7.3919988 6.05495674,7.632 L8.43095674,8.088 C9.93496426,8.37600144 11.1029526,8.97599544 11.9349567,9.888 C12.7669609,10.8000046 13.1829567,11.8719938 13.1829567,13.104 C13.1829567,14.512007 12.6269623,15.7399948 11.5149567,16.788 C10.4029512,17.8360052 8.9109661,18.36 7.03895674,18.36 C5.96695138,18.36 4.99896106,18.2000016 4.13495674,17.88 C3.27095242,17.5599984 2.57495938,17.1320027 2.04695674,16.596 C1.5189541,16.0599973 1.10695822,15.492003 0.810956739,14.892 C0.514955259,14.291997 0.334957059,13.6720032 0.270956739,13.032 L3.34295674,12.216 C3.42295714,13.1280046 3.77895358,13.887997 4.41095674,14.496 C5.0429599,15.104003 5.92695106,15.408 7.06295674,15.408 C7.92696106,15.408 8.6029543,15.2160019 9.09095674,14.832 C9.57895918,14.4479981 9.82295674,13.9440031 9.82295674,13.32 C9.82295674,12.8239975 9.64295854,12.3960018 9.28295674,12.036 C8.92295494,11.6759982 8.41496002,11.4320006 7.75895674,11.304 L5.38295674,10.824 C4.00694986,10.5359986 2.91896074,9.96800424 2.11895674,9.12 C1.31895274,8.27199576 0.918956739,7.21600632 0.918956739,5.952 C0.918956739,4.44799248 1.49895094,3.18400512 2.65895674,2.16 C3.81896254,1.13599488 5.21494858,0.624 6.84695674,0.624 C7.82296162,0.624 8.6949529,0.75999864 9.46295674,1.032 C10.2309606,1.30400136 10.8469544,1.66799772 11.3109567,2.124 C11.7749591,2.58000228 12.1349555,3.0479976 12.3909567,3.528 C12.646958,4.0080024 12.8309562,4.51199736 12.9429567,5.04 Z M22.4573915,8.736 L25.0733915,8.736 C25.8893956,8.736 26.5373891,8.5160022 27.0173915,8.076 C27.4973939,7.6359978 27.7373915,7.04800368 27.7373915,6.312 C27.7373915,5.55999624 27.5013939,4.9640022 27.0293915,4.524 C26.5573891,4.0839978 25.9053957,3.864 25.0733915,3.864 L22.4573915,3.864 L22.4573915,8.736 Z M25.4813915,11.592 L22.4333915,11.592 L22.4333915,18 L19.1213915,18 L19.1213915,0.984 L25.4813915,0.984 C27.1453998,0.984 28.4933863,1.47999504 29.5253915,2.472 C30.5573967,3.46400496 31.0733915,4.73599224 31.0733915,6.288 C31.0733915,7.84000776 30.5573967,9.11199504 29.5253915,10.104 C28.4933863,11.096005 27.1453998,11.592 25.4813915,11.592 Z M46.9718262,18 L45.5558262,14.112 L38.6438262,14.112 L37.2278262,18 L33.7238262,18 L40.2518262,0.984 L44.0918262,0.984 L50.5718262,18 L46.9718262,18 Z M42.0998262,4.656 L39.7478262,11.088 L44.4518262,11.088 L42.0998262,4.656 Z M62.774261,18.36 C60.3262488,18.36 58.2622694,17.5440082 56.582261,15.912 C54.9022526,14.2799918 54.062261,12.1440132 54.062261,9.504 C54.062261,6.87998688 54.9142525,4.74400824 56.618261,3.096 C58.3222695,1.44799176 60.3582492,0.624 62.726261,0.624 C64.9022719,0.624 66.6502544,1.17599448 67.970261,2.28 C69.2902676,3.38400552 70.1422591,4.71199224 70.526261,6.264 L67.406261,7.248 C67.1662598,6.2879952 66.6622648,5.47600332 65.894261,4.812 C65.1262572,4.14799668 64.0702677,3.816 62.726261,3.816 C61.334254,3.816 60.1142662,4.31199504 59.066261,5.304 C58.0182558,6.29600496 57.494261,7.69599096 57.494261,9.504 C57.494261,11.2320086 58.0102558,12.599995 59.042261,13.608 C60.0742662,14.616005 61.3182537,15.12 62.774261,15.12 C64.1022676,15.12 65.162257,14.7760034 65.954261,14.088 C66.746265,13.3999966 67.2782596,12.5840047 67.550261,11.64 L70.646261,12.576 C70.4702601,13.2640034 70.186263,13.9359967 69.794261,14.592 C69.402259,15.2480033 68.8942641,15.8639971 68.270261,16.44 C67.6462579,17.0160029 66.8582658,17.4799982 65.906261,17.832 C64.9542562,18.1840018 63.9102667,18.36 62.774261,18.36 Z M79.8966957,18 L76.5366957,18 L76.5366957,0.984 L79.8966957,0.984 L79.8966957,18 Z M98.4591305,18 L97.0431305,14.112 L90.1311305,14.112 L88.7151305,18 L85.2111305,18 L91.7391305,0.984 L95.5791305,0.984 L102.05913,18 L98.4591305,18 Z M93.5871305,4.656 L91.2351305,11.088 L95.9391305,11.088 L93.5871305,4.656 Z M118.269565,18 L107.373565,18 L107.373565,0.984 L110.685565,0.984 L110.685565,14.832 L118.269565,14.832 L118.269565,18 Z" id="SPACIAL" fill="currentColor"></path>
    </g>
</svg>